<svg xmlns="http://www.w3.org/2000/svg" width="225" height="47" fill="none"><path fill="#fff" d="M21.267 47C8.017 47 0 37.736 0 23.5S8.018 0 21.267 0c12.23 0 19.637 6.812 19.637 17.778v.409H33.09v-.409c0-7.492-3.466-10.694-12.027-10.694-9.444 0-13.25 4.564-13.25 16.416s3.806 16.416 13.25 16.416c8.562 0 12.027-3.201 12.027-10.694v-.409h7.814v.409C40.904 40.188 33.497 47 21.267 47Zm57.073-.681H46.745V.68h7.338v39.03H78.34v6.608Zm35.919 0H81.713V.68h32.546v6.607H89.051v12.738h24.189V26.7H89.051v13.01h25.208v6.608Zm13.278 0h-7.339V.68h19.569c10.056 0 16.375 4.973 16.375 13.623 0 7.561-4.62 12.125-12.638 12.534v.545c3.329 1.09 5.3 3.133 6.998 6.266l6.795 12.67h-8.493l-6.455-11.784c-2.107-3.95-4.009-5.79-9.445-5.79h-5.367v17.574Zm0-39.03v15.394h13.113c5.911 0 8.154-2.18 8.154-7.697 0-5.382-2.243-7.698-8.154-7.698h-13.113Zm41.272 39.03h-7.339V.68h7.339v19.481h10.531L191.299.682h8.357l-14.133 22.614 14.065 23.023h-8.425l-11.687-19.073h-10.667V46.32Zm44.64-23.159c-7.066 0-11.551-4.769-11.551-11.376 0-6.607 4.485-11.375 11.551-11.375C220.584.409 225 5.177 225 11.784s-4.416 11.375-11.551 11.375Zm0-3.202c5.436 0 8.154-2.384 8.154-8.174 0-5.79-2.718-8.174-8.154-8.174s-8.017 2.384-8.017 8.174c0 5.79 2.581 8.174 8.017 8.174Zm-1.631-3.474h-2.785V6.812h5.028c2.718 0 4.008 1.021 4.008 2.997 0 1.77-1.155 2.792-2.717 2.792v.137c.815.272 1.223.68 1.834 1.703l1.223 2.043h-3.057l-1.155-1.84c-.544-1.02-.884-1.361-1.971-1.361h-.408v3.201Zm0-7.356v2.043h2.311c1.019 0 1.291-.204 1.291-.954 0-.817-.272-1.09-1.291-1.09h-2.311Z"/></svg>